<mxfile host="app.diagrams.net" modified="2024-07-04T18:04:20.352Z" agent="Mozilla/5.0 (Windows NT 10.0; Win64; x64) AppleWebKit/537.36 (KHTML, like Gecko) Chrome/123.0.0.0 Safari/537.36 OPR/109.0.0.0 (Edition std-1)" version="24.6.4" etag="IZn5YEd2r-PHIxzFTaaO" type="github">
  <diagram name="PÃ¡gina-1" id="MVoVpEuS7LP-Ffsrh-R0">
    <mxGraphModel>
      <root>
        <mxCell id="0" />
        <mxCell id="1" parent="0" />
      </root>
    </mxGraphModel>
  </diagram>
</mxfile>
